<svg xmlns="http://www.w3.org/2000/svg" version="1.1" xmlns:xlink="http://www.w3.org/1999/xlink" xmlns:svgjs="http://svgjs.dev/svgjs" width="1000" height="623" viewBox="0 0 1000 623"><g transform="matrix(1,0,0,1,-0.6060606060606233,0.2522267206477409)"><svg viewBox="0 0 396 247" data-background-color="#ffbe79" preserveAspectRatio="xMidYMid meet" height="623" width="1000" xmlns="http://www.w3.org/2000/svg" xmlns:xlink="http://www.w3.org/1999/xlink"><g id="tight-bounds" transform="matrix(1,0,0,1,0.2400000000000091,-0.09999999999999432)"><svg viewBox="0 0 395.52 247.2" height="247.2" width="395.52"><g><svg></svg></g><g><svg viewBox="0 0 395.52 247.2" height="247.2" width="395.52"><g transform="matrix(1,0,0,1,39.55199999999999,106.96825046040516)"><svg viewBox="0 0 316.416 33.263499079189685" height="33.263499079189685" width="316.416"><g><svg viewBox="0 0 316.416 33.263499079189685" height="33.263499079189685" width="316.416"><g><svg viewBox="0 0 316.416 33.263499079189685" height="33.263499079189685" width="316.416"><g><svg viewBox="0 0 316.416 33.263499079189685" height="33.263499079189685" width="316.416"><g id="textblocktransform"><svg viewBox="0 0 316.416 33.263499079189685" height="33.263499079189685" width="316.416" id="textblock"><g><svg viewBox="0 0 316.416 33.263499079189685" height="33.263499079189685" width="316.416"><g transform="matrix(1,0,0,1,0,0)"><svg width="316.416" viewBox="-0.10000000149011612 -33.45000076293945 318.1400146484375 33.45000076293945" height="33.263499079189685" data-palette-color="#374151"><path d="M20.75-30.91L17.9-31.25 12.01-31.25 9.5-30.96 7.96-29.39 7.59-27.34 7.59-14.94 7.96-12.89 9.55-11.35 12.01-11.06 17.9-11.06 20.75-11.4 20.14-14.04 17.85-13.65 12.16-13.65 10.55-13.89 10.21-15.36 10.21-27.1 10.45-28.44 12.16-28.71 17.75-28.71 20.26-28.3 20.75-30.91ZM10.69-33.45L18.21-33.45Q20.68-33.45 22.68-32.71 24.68-31.98 26.09-30.71 27.49-29.44 28.25-27.75 29-26.05 29-24.15L29-24.15 29-9.3Q29-7.4 28.25-5.7 27.49-4 26.09-2.73 24.68-1.46 22.68-0.73 20.68 0 18.21 0L18.21 0 10.69 0Q8.23 0 6.23-0.73 4.22-1.46 2.82-2.73 1.42-4 0.66-5.7-0.1-7.4-0.1-9.3L-0.1-9.3-0.1-24.15Q-0.1-26.05 0.66-27.75 1.42-29.44 2.82-30.71 4.22-31.98 6.23-32.71 8.23-33.45 10.69-33.45L10.69-33.45ZM52.19-11.06L52.19-31.25 49.66-31.25 49.66-22.71 39.5-22.71 39.5-31.25 36.91-31.25 36.91-11.06 39.5-11.06 39.5-20.14 49.66-20.14 49.66-11.06 52.19-11.06ZM39.6-33.45L47.12-33.45Q49.58-33.45 51.58-32.71 53.59-31.98 54.99-30.71 56.39-29.44 57.15-27.75 57.91-26.05 57.91-24.15L57.91-24.15 57.91-9.3Q57.91-7.4 57.15-5.7 56.39-4 54.99-2.73 53.59-1.46 51.58-0.73 49.58 0 47.12 0L47.12 0 39.6 0Q37.13 0 35.13-0.73 33.13-1.46 31.72-2.73 30.32-4 29.56-5.7 28.81-7.4 28.81-9.3L28.81-9.3 28.81-24.15Q28.81-26.05 29.56-27.75 30.32-29.44 31.72-30.71 33.13-31.98 35.13-32.71 37.13-33.45 39.6-33.45L39.6-33.45ZM68.5-33.45L76.02-33.45Q78.49-33.45 80.49-32.71 82.49-31.98 83.89-30.71 85.3-29.44 86.05-27.75 86.81-26.05 86.81-24.15L86.81-24.15 86.81-9.3Q86.81-7.4 86.05-5.7 85.3-4 83.89-2.73 82.49-1.46 80.49-0.73 78.49 0 76.02 0L76.02 0 68.5 0Q66.04 0 64.03-0.73 62.03-1.46 60.63-2.73 59.22-4 58.47-5.7 57.71-7.4 57.71-9.3L57.71-9.3 57.71-24.15Q57.71-26.05 58.47-27.75 59.22-29.44 60.63-30.71 62.03-31.98 64.03-32.71 66.04-33.45 68.5-33.45L68.5-33.45ZM79.22-21.19L79.22-27.34 78.85-29.39 77.31-30.96 74.85-31.25 69.55-31.25 67.11-30.96 65.57-29.39 65.2-27.34 65.2-15.75 65.57-13.7 67.11-12.16 69.55-11.84 75.7-11.84 78.56-12.21 77.95-14.84 75.65-14.45 69.72-14.45 68.16-14.7 67.82-16.16 67.82-21.19 79.22-21.19ZM76.61-23.75L67.82-23.75 67.82-27.05 68.01-28.44 69.72-28.71 74.7-28.71 76.36-28.44 76.61-27 76.61-23.75ZM97.4-33.45L104.92-33.45Q107.39-33.45 109.39-32.71 111.39-31.98 112.8-30.71 114.2-29.44 114.96-27.75 115.72-26.05 115.72-24.15L115.72-24.15 115.72-9.3Q115.72-7.4 114.96-5.7 114.2-4 112.8-2.73 111.39-1.46 109.39-0.73 107.39 0 104.92 0L104.92 0 97.4 0Q94.94 0 92.94-0.73 90.93-1.46 89.53-2.73 88.13-4 87.37-5.7 86.61-7.4 86.61-9.3L86.61-9.3 86.61-24.15Q86.61-26.05 87.37-27.75 88.13-29.44 89.53-30.71 90.93-31.98 92.94-32.71 94.94-33.45 97.4-33.45L97.4-33.45ZM110-14.99L110-27.29 109.66-29.35 108.12-30.91 105.61-31.25 94.72-31.25 94.72-11.06 105.61-11.06 108.12-11.35 109.66-12.89 110-14.99ZM107.41-15.26L107.07-13.89 105.46-13.65 97.26-13.65 97.26-28.66 105.46-28.66 107.17-28.39 107.41-26.95 107.41-15.26ZM126.31-33.45L133.83-33.45Q136.29-33.45 138.3-32.71 140.3-31.98 141.7-30.71 143.11-29.44 143.86-27.75 144.62-26.05 144.62-24.15L144.62-24.15 144.62-9.3Q144.62-7.4 143.86-5.7 143.11-4 141.7-2.73 140.3-1.46 138.3-0.73 136.29 0 133.83 0L133.83 0 126.31 0Q123.84 0 121.84-0.73 119.84-1.46 118.43-2.73 117.03-4 116.27-5.7 115.52-7.4 115.52-9.3L115.52-9.3 115.52-24.15Q115.52-26.05 116.27-27.75 117.03-29.44 118.43-30.71 119.84-31.98 121.84-32.71 123.84-33.45 126.31-33.45L126.31-33.45ZM137.03-21.19L137.03-27.34 136.66-29.39 135.12-30.96 132.66-31.25 127.36-31.25 124.92-30.96 123.38-29.39 123.01-27.34 123.01-15.75 123.38-13.7 124.92-12.16 127.36-11.84 133.51-11.84 136.37-12.21 135.76-14.84 133.46-14.45 127.53-14.45 125.97-14.7 125.62-16.16 125.62-21.19 137.03-21.19ZM134.41-23.75L125.62-23.75 125.62-27.05 125.82-28.44 127.53-28.71 132.51-28.71 134.17-28.44 134.41-27 134.41-23.75ZM165.56-11.06L165.56-13.65 158.07-13.65 158.07-31.25 155.48-31.25 155.48-11.06 165.56-11.06ZM155.21-33.45L162.73-33.45Q165.2-33.45 167.2-32.71 169.2-31.98 170.61-30.71 172.01-29.44 172.77-27.75 173.52-26.05 173.52-24.15L173.52-24.15 173.52-9.3Q173.52-7.4 172.77-5.7 172.01-4 170.61-2.73 169.2-1.46 167.2-0.73 165.2 0 162.73 0L162.73 0 155.21 0Q152.75 0 150.74-0.73 148.74-1.46 147.34-2.73 145.93-4 145.18-5.7 144.42-7.4 144.42-9.3L144.42-9.3 144.42-24.15Q144.42-26.05 145.18-27.75 145.93-29.44 147.34-30.71 148.74-31.98 150.74-32.71 152.75-33.45 155.21-33.45L155.21-33.45ZM187.92-13.65L182.16-13.65 182.16-11.06 196.27-11.06 196.27-13.65 190.54-13.65 190.54-28.66 196.27-28.66 196.27-31.25 182.16-31.25 182.16-28.66 187.92-28.66 187.92-13.65ZM184.12-33.45L191.64-33.45Q194.1-33.45 196.1-32.71 198.11-31.98 199.51-30.71 200.91-29.44 201.67-27.75 202.43-26.05 202.43-24.15L202.43-24.15 202.43-9.3Q202.43-7.4 201.67-5.7 200.91-4 199.51-2.73 198.11-1.46 196.1-0.73 194.1 0 191.64 0L191.64 0 184.12 0Q181.65 0 179.65-0.73 177.65-1.46 176.24-2.73 174.84-4 174.08-5.7 173.32-7.4 173.32-9.3L173.32-9.3 173.32-24.15Q173.32-26.05 174.08-27.75 174.84-29.44 176.24-30.71 177.65-31.98 179.65-32.71 181.65-33.45 184.12-33.45L184.12-33.45ZM216.12-11.35L217.68-10.89 219.32-11.35 220.78-12.79 225.57-30.76 222.74-31.25 218.32-13.79 217.78-13.6 217.12-13.75 212.73-31.25 209.87-30.76 214.68-12.79 216.12-11.35ZM213.02-33.45L220.54-33.45Q223-33.45 225.01-32.71 227.01-31.98 228.41-30.71 229.82-29.44 230.57-27.75 231.33-26.05 231.33-24.15L231.33-24.15 231.33-9.3Q231.33-7.4 230.57-5.7 229.82-4 228.41-2.73 227.01-1.46 225.01-0.73 223 0 220.54 0L220.54 0 213.02 0Q210.55 0 208.55-0.73 206.55-1.46 205.15-2.73 203.74-4 202.99-5.7 202.23-7.4 202.23-9.3L202.23-9.3 202.23-24.15Q202.23-26.05 202.99-27.75 203.74-29.44 205.15-30.71 206.55-31.98 208.55-32.71 210.55-33.45 213.02-33.45L213.02-33.45ZM241.92-33.45L249.44-33.45Q251.91-33.45 253.91-32.71 255.91-31.98 257.32-30.71 258.72-29.44 259.48-27.75 260.23-26.05 260.23-24.15L260.23-24.15 260.23-9.3Q260.23-7.4 259.48-5.7 258.72-4 257.32-2.73 255.91-1.46 253.91-0.73 251.91 0 249.44 0L249.44 0 241.92 0Q239.46 0 237.46-0.73 235.45-1.46 234.05-2.73 232.65-4 231.89-5.7 231.13-7.4 231.13-9.3L231.13-9.3 231.13-24.15Q231.13-26.05 231.89-27.75 232.65-29.44 234.05-30.71 235.45-31.98 237.46-32.71 239.46-33.45 241.92-33.45L241.92-33.45ZM252.64-21.19L252.64-27.34 252.27-29.39 250.74-30.96 248.27-31.25 242.97-31.25 240.53-30.96 238.99-29.39 238.63-27.34 238.63-15.75 238.99-13.7 240.53-12.16 242.97-11.84 249.13-11.84 251.98-12.21 251.37-14.84 249.08-14.45 243.14-14.45 241.58-14.7 241.24-16.16 241.24-21.19 252.64-21.19ZM250.03-23.75L241.24-23.75 241.24-27.05 241.44-28.44 243.14-28.71 248.12-28.71 249.78-28.44 250.03-27 250.03-23.75ZM270.83-33.45L278.35-33.45Q280.81-33.45 282.81-32.71 284.82-31.98 286.22-30.71 287.62-29.44 288.38-27.75 289.14-26.05 289.14-24.15L289.14-24.15 289.14-9.3Q289.14-7.4 288.38-5.7 287.62-4 286.22-2.73 284.82-1.46 282.81-0.73 280.81 0 278.35 0L278.35 0 270.83 0Q268.36 0 266.36-0.73 264.36-1.46 262.95-2.73 261.55-4 260.79-5.7 260.04-7.4 260.04-9.3L260.04-9.3 260.04-24.15Q260.04-26.05 260.79-27.75 261.55-29.44 262.95-30.71 264.36-31.98 266.36-32.71 268.36-33.45 270.83-33.45L270.83-33.45ZM279.23-18.41L279.59-17.09 279.59-11.06 282.18-11.06 282.18-17.36 281.33-19.6 278.54-20.61 281.23-21.9 281.98-24.1 281.98-26.81 281.69-28.86 280.08-30.91 277.64-31.25 268.53-31.25 268.53-11.06 271.14-11.06 271.14-19.19 277.49-19.19 279.23-18.41ZM271.14-28.66L277.49-28.66 279.23-27.91 279.4-26.49 279.4-23.9 279.03-22.56 277.49-21.8 271.14-21.8 271.14-28.66ZM304.59-20.29L300.24-31.25 297.19-31.25 303.3-16.75 303.3-11.06 305.88-11.06 305.88-16.7 312.08-31.25 309.03-31.25 304.59-20.29ZM299.73-33.45L307.25-33.45Q309.72-33.45 311.72-32.71 313.72-31.98 315.12-30.71 316.53-29.44 317.28-27.75 318.04-26.05 318.04-24.15L318.04-24.15 318.04-9.3Q318.04-7.4 317.28-5.7 316.53-4 315.12-2.73 313.72-1.46 311.72-0.73 309.72 0 307.25 0L307.25 0 299.73 0Q297.27 0 295.26-0.73 293.26-1.46 291.86-2.73 290.45-4 289.7-5.7 288.94-7.4 288.94-9.3L288.94-9.3 288.94-24.15Q288.94-26.05 289.7-27.75 290.45-29.44 291.86-30.71 293.26-31.98 295.26-32.71 297.27-33.45 299.73-33.45L299.73-33.45Z" opacity="1" transform="matrix(1,0,0,1,0,0)" fill="#374151" class="undefined-text-0" data-fill-palette-color="primary" id="text-0"></path></svg></g></svg></g></svg></g></svg></g></svg></g></svg></g></svg></g><g mask="url(&quot;#2a46d1f2-25c6-47d4-941b-4ab6be4fc94e&quot;)"><g transform="matrix(7.6625, 0, 0, 7.6625, 75.15845080375671, 1)"><svg xmlns="http://www.w3.org/2000/svg" xmlns:xlink="http://www.w3.org/1999/xlink" version="1.1" x="0" y="0" viewBox="0 0 32.000404357910156 32" enable-background="new 0 0 32 32" xml:space="preserve" width="32.000404357910156" height="32" class="icon-none" data-fill-palette-color="accent" id="none"><g fill="#374151" data-fill-palette-color="accent"><path fill="#374151" d="M29.5 21h-2.691c-0.045-0.239-0.1-0.473-0.16-0.706l4.799-2.399c0.494-0.247 0.693-0.848 0.447-1.342-0.248-0.494-0.846-0.692-1.342-0.447l-4.578 2.288C24.229 14.626 20.42 12 16 12c-5.382 0-9.865 3.888-10.809 9H2.5C1.122 21 0 22.121 0 23.5c0 0.49 0.18 0.963 0.505 1.329L4 28.761V29.5C4 30.879 5.122 32 6.5 32h19c1.379 0 2.5-1.121 2.5-2.5v-0.739l3.494-3.932C31.82 24.463 32 23.99 32 23.5 32 22.121 30.879 21 29.5 21zM25.799 21h-0.562l0.498-0.25C25.754 20.834 25.781 20.915 25.799 21zM16 13c4.029 0 7.5 2.4 9.082 5.841l-0.891 0.445C22.775 16.171 19.645 14 16 14c-4.282 0-7.859 2.993-8.77 7H6.202C7.131 16.441 11.171 13 16 13zM20.576 21c-0.773-1.763-2.531-3-4.576-3s-3.802 1.237-4.576 3H10.35c0.826-2.326 3.043-4 5.65-4 2.465 0 4.588 1.496 5.508 3.627L20.764 21H20.576zM16 20c-0.883 0-1.67 0.391-2.22 1h-1.224c0.694-1.189 1.97-2 3.444-2 1.473 0 2.75 0.811 3.443 2h-1.225C17.67 20.391 16.883 20 16 20zM16 16c-3.165 0-5.842 2.112-6.705 5H8.263c0.892-3.444 4.017-6 7.737-6 3.246 0 6.043 1.948 7.295 4.734l-0.893 0.446C21.314 17.723 18.855 16 16 16zM26 28v1.5c0 0.276-0.225 0.5-0.5 0.5h-19C6.224 30 6 29.776 6 29.5V28l-4-4.5C2 23.224 2.224 23 2.5 23H5h1 1 1 1 1 1 1 1 6 1 1 1 1 1 1 1 1 2.5c0.275 0 0.5 0.224 0.5 0.5L26 28z" data-fill-palette-color="accent"></path><path fill="#374151" d="M7.977 11.712c0.003 0.006 0.005 0.012 0.008 0.018 0 0 0.001 0 0.002 0C8.07 11.89 8.236 12 8.43 12c0.277 0 0.502-0.226 0.502-0.503 0-0.043-0.007-0.085-0.018-0.125 0.002-0.007 0.002-0.013 0-0.02-0.375-0.882-0.019-1.85 0.419-2.892 0.473-1.126 0.98-2.376 0.422-3.647C9.684 4.63 9.507 4.5 9.299 4.5c-0.271 0-0.49 0.22-0.49 0.49 0 0.06 0.012 0.116 0.032 0.169 0 0.002 0 0.004 0.001 0.006 0.001 0.003 0.002 0.006 0.003 0.009C8.847 5.178 8.848 5.182 8.85 5.186c0.404 0.909 0.013 1.841-0.428 2.893C7.956 9.188 7.44 10.417 7.959 11.67 7.965 11.685 7.97 11.698 7.977 11.712z" data-fill-palette-color="accent"></path><path fill="#374151" d="M20.154 11.566c0.004 0.006 0.006 0.012 0.008 0.018h0.002c0.084 0.16 0.25 0.271 0.443 0.271 0.277 0 0.504-0.226 0.504-0.503 0-0.043-0.008-0.085-0.018-0.125 0.002-0.007 0.002-0.013-0.002-0.02-0.373-0.882-0.018-1.85 0.42-2.892 0.473-1.126 0.98-2.376 0.422-3.647-0.072-0.184-0.248-0.313-0.457-0.313-0.27 0-0.49 0.22-0.49 0.49 0 0.06 0.014 0.116 0.033 0.169 0 0.002 0 0.004 0 0.006 0.002 0.003 0.002 0.006 0.004 0.009 0.002 0.004 0.004 0.008 0.004 0.012 0.404 0.909 0.014 1.841-0.428 2.893-0.465 1.109-0.98 2.339-0.461 3.592C20.143 11.539 20.148 11.553 20.154 11.566z" data-fill-palette-color="accent"></path><path fill="#374151" d="M15.019 7.212c0.003 0.006 0.005 0.012 0.008 0.018 0 0 0.001 0 0.002 0 0.084 0.16 0.25 0.271 0.443 0.271 0.277 0 0.502-0.226 0.502-0.503 0-0.043-0.007-0.085-0.018-0.125 0.002-0.007 0.002-0.013 0-0.02-0.375-0.882-0.019-1.85 0.419-2.892 0.473-1.126 0.98-2.376 0.422-3.647C16.725 0.13 16.549 0 16.34 0c-0.27 0-0.49 0.22-0.49 0.49 0 0.06 0.012 0.116 0.032 0.169 0 0.002 0 0.004 0.001 0.006 0.001 0.003 0.002 0.006 0.003 0.009 0.001 0.004 0.003 0.008 0.004 0.012 0.404 0.909 0.013 1.841-0.428 2.893-0.466 1.109-0.982 2.339-0.462 3.592C15.007 7.185 15.012 7.198 15.019 7.212z" data-fill-palette-color="accent"></path></g></svg></g></g></svg></g><defs><mask id="5dc0cc16-7386-432a-af97-875e59d7d00f"><rect width="640" height="400" fill="white"></rect><rect width="348.05760000000004" height="48.96892669642725" fill="black" y="99.11553665178637" x="23.731199999999973" id="transform-me"></rect></mask><mask id="7968f834-504b-42f1-802c-c2197ec8836d"><rect width="640" height="400" fill="white"></rect><rect width="348.05760000000004" height="48.96892669642725" fill="black" y="99.11553665178637" x="23.731199999999973" id="transform-me"></rect></mask><mask id="2a46d1f2-25c6-47d4-941b-4ab6be4fc94e"><rect width="640" height="400" fill="white"></rect><rect width="348.05760000000004" height="48.96892669642725" fill="black" y="99.11553665178637" x="23.731199999999973" id="transform-me"></rect></mask></defs></svg><rect width="395.52" height="247.2" fill="none" stroke="none" visibility="hidden"></rect></g></svg></g></svg>